<svg width="256" height="256" viewBox="0 0 256 256" fill="none" xmlns="http://www.w3.org/2000/svg">
<path d="M256 128C256 96.9465 244.711 66.9516 224.236 43.6041C203.76 20.2566 175.496 5.14877 144.708 1.09542C113.919 -2.95792 82.7075 4.31966 56.8872 21.5723C31.0668 38.8248 12.399 64.8758 4.36165 94.8715C-3.67568 124.867 -0.53433 156.762 13.2004 184.613C26.9352 212.465 50.3266 234.373 79.0167 246.257C107.707 258.141 139.739 259.189 169.144 249.207C198.55 239.226 223.324 218.894 238.851 192L205.596 172.8C194.727 191.626 177.385 205.858 156.801 212.845C136.217 219.833 113.795 219.099 93.7117 210.78C73.6287 202.461 57.2547 187.125 47.6404 167.629C38.026 148.133 35.8271 125.807 41.4532 104.81C47.0793 83.8132 60.1468 65.5775 78.2211 53.5007C96.2953 41.4239 118.144 36.3296 139.695 39.1669C161.247 42.0042 181.032 52.5797 195.365 68.923C209.698 85.2663 217.6 106.263 217.6 128H256Z" fill="#6EB92B"/>
<path d="M153 173H237V256" stroke="#6EB92B" stroke-width="38"/>
</svg>
